<svg xmlns="http://www.w3.org/2000/svg" viewBox="0 0 198 198"><path d="M115.4 87.7l-1.8 5.2h3.7l-1.8-5.2zM93.9 104.1l-1.5 4.4h3.2l-1.5-4.4zM104.9 104.1h-2.2v3h2.2c.6 0 1-.1 1.3-.4.3-.3.4-.6.4-1.1 0-.5-.1-.8-.4-1.1-.3-.3-.7-.4-1.3-.4z"/><path d="M43.4 73.1v51.7h111.2V73.1H43.4zm23 19.6V94c0 .4-.1.7-.1 1-.1.3-.1.6-.2.8-.1.2-.2.5-.4.7-.9 1.3-2.4 1.9-4.5 1.9s-3.6-.6-4.5-1.9c-.2-.2-.3-.5-.4-.7-.1-.2-.2-.5-.2-.8-.1-.3-.1-.6-.1-1v-8.8h2.8v7.4c0 .7.1 1.2.2 1.6.1.4.4.8.8 1.1.4.3.9.5 1.5.5s1.1-.2 1.5-.5c.4-.3.7-.7.8-1.1.1-.4.2-1 .2-1.6v-7.4h2.8v7.5zm11 5.6h-8.6v-13h2.8v10.3h5.9v2.7zm-1.3-10.6v-2.4h10.3v2.4h-3.8v10.6h-2.8V87.7h-3.7zM87.4 113H80v-11h7.3v2h-4.9v2.4H87v2.1h-4.6v2.3h5.1v2.2zm.9-27.7h2.8v12.9h-2.8V85.3zm8.6 27.7l-.9-2.5h-4l-.9 2.5h-2.4l3.9-11h2.9l3.9 11h-2.5zm-.4-25.3h-.1v10.6h-2.5v-13h4.4l2.5 9.2h.1l2.5-9.2h4.4v12.9h-2.5V87.7h-.1l-3.1 10.6h-2.5l-3.1-10.6zm10.1 25.3l-2-3.9h-1.9v3.9h-2.4v-11h4.3c.6 0 1.2.1 1.7.2s.9.3 1.3.6.6.6.8 1.1c.2.4.3.9.3 1.5 0 .9-.2 1.6-.5 2.1s-.8.9-1.5 1.2l2.6 4.2h-2.7zm12-1.6c-.2.4-.5.7-.8 1-.4.3-.8.5-1.3.6-.5.1-1.1.2-1.8.2s-1.3-.1-1.9-.3c-.6-.2-1-.4-1.4-.8-.4-.3-.7-.8-.9-1.3-.2-.5-.3-1.1-.3-1.8h2.3c0 .7.2 1.2.5 1.5.3.3.9.5 1.6.6.6 0 1.1-.1 1.4-.2.3-.2.5-.4.6-.7.1-.3 0-.6-.1-.8-.1-.2-.5-.4-1-.6s-1.4-.5-2.6-1c-1.7-.7-2.5-1.6-2.5-3 0-.4.1-.9.3-1.2.2-.4.5-.7.8-1 .4-.3.8-.5 1.3-.6.5-.1 1.1-.2 1.7-.2.7 0 1.2.1 1.8.3.5.2 1 .4 1.3.7.4.3.6.6.8 1.1.2.4.3.9.3 1.4h-2.3c0-.5-.1-.8-.5-1.1-.3-.2-.8-.4-1.4-.4-.5 0-1 .1-1.3.2-.3.2-.5.4-.5.8 0 .3.1.6.4.8.3.2.8.4 1.4.6l1.4.5c1.2.4 2 .9 2.3 1.3.4.5.6 1.1.5 1.8.2.7.1 1.2-.1 1.6zm.3-13.1l-1.1-3h-4.7l-1.1 3h-2.8l4.5-12.9h3.4l4.5 12.9h-2.7zm12.7-10.6h-3.8v10.6H125V87.7h-3.8v-2.4h10.3v2.4zM142 98.3h-8.8v-13h8.6v2.4H136v2.8h5.4v2.4H136v2.7h6v2.7z"/></svg>